<svg width="38" height="39" viewBox="0 0 38 39" fill="none" xmlns="http://www.w3.org/2000/svg">
<path d="M17.4163 17.5078V20.6745C17.4163 21.1231 17.5683 21.4994 17.8723 21.8034C18.1763 22.1074 18.5521 22.2589 18.9997 22.2578C19.4472 22.2568 19.8235 22.1048 20.1286 21.8018C20.4336 21.4989 20.5851 21.1231 20.583 20.6745V17.5078H23.7497C24.1983 17.5078 24.5746 17.3558 24.8786 17.0518C25.1826 16.7478 25.3341 16.372 25.333 15.9245C25.332 15.4769 25.18 15.1011 24.877 14.7971C24.5741 14.4931 24.1983 14.3411 23.7497 14.3411H20.583V11.1745C20.583 10.7259 20.431 10.3501 20.127 10.0471C19.823 9.7442 19.4472 9.5922 18.9997 9.59115C18.5521 9.59009 18.1763 9.74209 17.8723 10.0471C17.5683 10.3522 17.4163 10.728 17.4163 11.1745V14.3411H14.2497C13.8011 14.3411 13.4253 14.4931 13.1223 14.7971C12.8194 15.1011 12.6674 15.4769 12.6663 15.9245C12.6653 16.372 12.8173 16.7483 13.1223 17.0534C13.4274 17.3585 13.8032 17.5099 14.2497 17.5078H17.4163ZM18.9997 33.8557C18.6302 33.8557 18.2608 33.7898 17.8913 33.6578C17.5219 33.5259 17.192 33.328 16.9018 33.0641C15.1865 31.4807 13.6691 29.937 12.3497 28.4328C11.0302 26.9286 9.92876 25.4709 9.04526 24.0596C8.16176 22.6484 7.48884 21.2893 7.02651 19.9826C6.56417 18.6758 6.33301 17.4286 6.33301 16.2411C6.33301 12.2828 7.60654 9.12934 10.1536 6.78073C12.7006 4.43212 15.6493 3.25781 18.9997 3.25781C22.35 3.25781 25.2992 4.43212 27.8473 6.78073C30.3954 9.12934 31.6685 12.2828 31.6663 16.2411C31.6663 17.4286 31.4357 18.6758 30.9744 19.9826C30.5131 21.2893 29.8402 22.6484 28.9557 24.0596C28.0711 25.4709 26.9691 26.9286 25.6497 28.4328C24.3302 29.937 22.8129 31.4807 21.0976 33.0641C20.8073 33.328 20.4775 33.5259 20.108 33.6578C19.7386 33.7898 19.3691 33.8557 18.9997 33.8557Z" fill="#2A2A2A"/>
</svg>
